<?xml version="1.0" encoding="UTF-8" standalone="no"?>
<!-- Created with Inkscape (http://www.inkscape.org/) -->

<svg
   xmlns:dc="http://purl.org/dc/elements/1.1/"
   xmlns:cc="http://creativecommons.org/ns#"
   xmlns:rdf="http://www.w3.org/1999/02/22-rdf-syntax-ns#"
   xmlns:svg="http://www.w3.org/2000/svg"
   xmlns="http://www.w3.org/2000/svg"
   xmlns:xlink="http://www.w3.org/1999/xlink"
   xmlns:sodipodi="http://sodipodi.sourceforge.net/DTD/sodipodi-0.dtd"
   xmlns:inkscape="http://www.inkscape.org/namespaces/inkscape"
   width="52.91666mm"
   height="15.244921mm"
   viewBox="0 0 52.91666 15.244921"
   version="1.1"
   id="svg8"
   inkscape:version="0.92.3 (2405546, 2018-03-11)"
   sodipodi:docname="azure2.svg">
  <defs
     id="defs2">
    <pattern
       inkscape:collect="always"
       xlink:href="#pattern4518"
       id="pattern5254"
       patternTransform="matrix(0.26458333,0,0,0.26458333,-662.44716,313.85417)" />
    <pattern
       patternUnits="userSpaceOnUse"
       width="199.99979"
       height="57.619029"
       patternTransform="matrix(0.26458333,0,0,0.26458333,-677.9313,313.85416)"
       id="pattern4518">
      <path
         inkscape:connector-curvature="0"
         id="path21"
         d="m 34.414224,54.541246 c 9.557253,-1.688314 17.451023,-3.085417 17.541694,-3.104617 l 0.164788,-0.03402 -9.023018,-10.732611 c -4.962633,-5.902904 -9.022979,-10.755439 -9.022979,-10.783407 0,-0.05291 9.316989,-25.7100099 9.369373,-25.8012855 0.0189,-0.030236 6.358035,10.9161825 15.369827,26.5355715 8.437001,14.623106 15.392919,26.67995 15.457549,26.79292 l 0.117544,0.205228 -28.675843,-0.0037 -28.675842,-0.0037 17.376869,-3.069657 z M 144.38275,51.945618 c -4.36505,-0.279685 -6.90376,-2.765405 -7.57651,-7.417776 -0.17915,-1.237607 -0.17953,-1.269733 -0.19805,-9.304252 l -0.0189,-7.776114 h 1.93183 1.93187 l 0.0151,7.521487 c 0.0151,6.778923 0.0227,7.57372 0.0869,8.050583 0.26305,1.935382 0.78667,3.236863 1.67818,4.171049 0.7135,0.747628 1.54874,1.185411 2.70497,1.4177 0.54546,0.109607 2.09719,0.109607 2.59453,4.54e-4 1.17215,-0.257764 2.11166,-0.768038 2.9404,-1.59651 0.94462,-0.944278 1.64345,-2.283969 1.98157,-3.798917 l 0.11414,-0.510614 0.0113,-7.585134 0.0113,-7.585134 h 1.97231 1.97227 v 11.924032 11.924069 h -1.95198 -1.95197 v -1.89188 c 0,-1.285455 -0.0151,-1.887156 -0.0438,-1.877216 -0.0227,0.0076 -0.12435,0.161386 -0.22262,0.340913 -0.67264,1.226797 -1.79338,2.348637 -3.02143,3.024529 -1.47205,0.81018 -2.94829,1.098256 -4.96531,0.96892 z m 44.30536,-0.0189 c -1.54083,-0.115653 -3.16327,-0.645581 -4.48936,-1.465851 -2.79496,-1.72887 -4.44873,-4.578671 -4.93296,-8.50046 -0.16743,-1.357115 -0.18784,-3.180019 -0.048,-4.333191 0.31257,-2.576655 1.32491,-5.106104 2.76673,-6.911924 0.36963,-0.462917 1.20812,-1.301405 1.67104,-1.671005 1.25004,-0.99806 2.71219,-1.695987 4.26463,-2.035578 0.90452,-0.198047 2.4974,-0.290646 3.45842,-0.201827 2.4141,0.223748 4.62667,1.360403 6.13047,3.149405 1.52787,1.817575 2.36764,4.35738 2.47491,7.484787 0.0151,0.490092 0.0227,1.349405 0.008,1.909531 l -0.0227,1.018432 -8.45503,0.01134 -8.45507,0.01134 v 0.377197 c 0,1.148636 0.27931,2.456844 0.76203,3.569915 0.41631,0.959848 1.13291,2.007949 1.71965,2.515162 1.20306,1.040012 2.67545,1.662538 4.28662,1.812321 0.5974,0.05556 2.11987,-0.0029 2.80067,-0.107339 1.9423,-0.298582 3.78894,-1.060308 5.28015,-2.178368 0.17537,-0.131528 0.34318,-0.254362 0.37304,-0.27326 0.0435,-0.02646 0.054,0.316347 0.0529,1.761033 l -0.001,1.794973 -0.39958,0.247182 c -1.68695,1.043376 -3.61954,1.713297 -5.66577,1.964107 -0.61066,0.07483 -2.85147,0.108094 -3.58175,0.05329 z m 7.3584,-15.138822 c 0,-1.923968 -0.81078,-4.061291 -1.95817,-5.161852 -0.8188,-0.785423 -1.80865,-1.265423 -2.98541,-1.447672 -0.55673,-0.08617 -1.73008,-0.05291 -2.31704,0.06576 -1.24078,0.250582 -2.26711,0.796195 -3.16226,1.680718 -0.94208,0.930935 -1.6484,2.061619 -2.09261,3.349833 -0.15987,0.463257 -0.34658,1.223773 -0.40452,1.646816 L 183.1,37.122948 h 6.47381 6.47384 z M 81.355502,51.327779 c 0.01134,-0.03024 2.881021,-7.57183 6.380296,-16.761411 l 6.362268,-16.708385 2.044233,-1.13e-4 2.044271,-1.13e-4 0.169701,0.434948 c 0.518324,1.329146 12.736859,33.051893 12.736859,33.068371 0,0.01134 -0.97864,0.0189 -2.17474,0.0189 l -2.17478,-4.54e-4 -1.76103,-4.688579 -1.761,-4.68858 -7.090695,-7.5e-5 -7.090734,-1.14e-4 -0.06161,0.159119 c -0.03402,0.08731 -0.786293,2.197228 -1.671988,4.688239 l -1.610343,4.529121 -2.179313,7.56e-4 c -1.725014,6.05e-4 -2.175534,-0.01134 -2.161285,-0.05216 z M 101.92721,38.42485 c 0,-0.0076 -1.18511,-3.220271 -2.633541,-7.139604 -2.709845,-7.332359 -2.861404,-7.773543 -3.075515,-8.950714 -0.100535,-0.552 -0.151181,-0.567345 -0.210897,-0.0635 -0.04271,0.360189 -0.22715,1.165645 -0.369638,1.612498 -0.07068,0.221858 -1.290936,3.570973 -2.711773,7.442759 -1.4208,3.871786 -2.58327,7.055962 -2.58327,7.075918 0,0.0189 2.606514,0.0378 5.792278,0.0378 3.185763,0 5.792276,-0.0076 5.792276,-0.01512 z m 10.48127,12.345335 v -0.610658 l 7.0645,-9.711496 7.06451,-9.711496 -6.39617,-0.02268 -6.39614,-0.02268 -0.0113,-1.623118 -0.0113,-1.623118 h 9.25118 9.25115 v 0.548221 0.54822 l -7.06529,9.764447 c -3.88592,5.370482 -7.0653,9.773518 -7.0653,9.784555 0,0.01134 3.1412,0.0189 6.98045,0.0189 h 6.98041 v 1.633739 1.633701 h -9.82353 -9.82355 z m 51.8406,0.58235 c -0.0151,-0.01512 -0.0264,-5.400492 -0.0264,-11.966476 V 27.447854 h 1.93077 1.93077 v 2.461191 c 0,1.353675 0.0151,2.46119 0.0378,2.46119 0.0189,0 0.11414,-0.22148 0.209,-0.492396 0.43408,-1.24097 1.18689,-2.400567 2.15679,-3.322167 0.87371,-0.830211 1.8723,-1.32669 3.05061,-1.516687 0.33109,-0.05329 0.61103,-0.0635 1.27302,-0.04649 0.83138,0.02268 1.26603,0.08239 1.77165,0.247559 l 0.15912,0.05216 v 2.004095 2.004132 l -0.45619,-0.228283 c -0.80579,-0.403351 -1.60086,-0.562961 -2.55666,-0.51326 -0.62203,0.03402 -1.03034,0.112252 -1.52761,0.29896 -1.02323,0.384 -1.85321,1.061821 -2.43315,1.987049 -0.83954,1.339427 -1.43833,3.061077 -1.61495,4.64349 -0.0302,0.283843 -0.0503,2.596687 -0.0578,7.156006 l -0.0113,6.736441 h -1.90208 c -1.04614,0 -1.91482,-0.01134 -1.93036,-0.02646 z M 0,51.268629 C 0,51.253511 4.2515906,43.873076 9.4479874,34.867634 L 18.895975,18.494116 29.906494,9.254078 C 35.96228,4.1720496 40.933342,0.00780395 40.95326,2.0709982e-4 40.972157,-0.00735196 40.893543,0.19296301 40.776378,0.44573781 40.659213,0.69821025 35.278904,12.23828 28.820485,26.08987 l -11.742652,25.184769 -8.5388598,0.01134 c -4.6963653,0.0076 -8.53885981417,-0.0017 -8.53885981417,-0.01512 z"
         style="fill:#0089d6;fill-opacity:1;stroke-width:0.0424343" />
    </pattern>
  </defs>
  <sodipodi:namedview
     id="base"
     pagecolor="#ffffff"
     bordercolor="#666666"
     borderopacity="1.0"
     inkscape:pageopacity="0.0"
     inkscape:pageshadow="2"
     inkscape:zoom="4.6135936"
     inkscape:cx="110.53408"
     inkscape:cy="16.170349"
     inkscape:document-units="mm"
     inkscape:current-layer="layer1"
     showgrid="false"
     inkscape:pagecheckerboard="true"
     fit-margin-top="0"
     fit-margin-left="0"
     fit-margin-right="0"
     fit-margin-bottom="0"
     inkscape:window-width="1920"
     inkscape:window-height="986"
     inkscape:window-x="-11"
     inkscape:window-y="-11"
     inkscape:window-maximized="1" />
  <metadata
     id="metadata5">
    <rdf:RDF>
      <cc:Work
         rdf:about="">
        <dc:format>image/svg+xml</dc:format>
        <dc:type
           rdf:resource="http://purl.org/dc/dcmitype/StillImage" />
        <dc:title></dc:title>
      </cc:Work>
    </rdf:RDF>
  </metadata>
  <g
     inkscape:label="Layer 1"
     inkscape:groupmode="layer"
     id="layer1"
     transform="translate(677.9313,-313.85407)">
    <path
       style="fill:url(#pattern5254);stroke:none;stroke-width:1"
       d="m -662.10311,313.85405 v 15.24506 h 19.61327 v -15.24506 z"
       id="rect4521"
       inkscape:connector-curvature="0" />
  </g>
</svg>
